<?xml version="1.0" standalone="no"?>
<!DOCTYPE svg PUBLIC "-//W3C//DTD SVG 20010904//EN"
 "http://www.w3.org/TR/2001/REC-SVG-20010904/DTD/svg10.dtd">
<svg version="1.0" xmlns="http://www.w3.org/2000/svg"
 width="500.000000pt" height="500.000000pt" viewBox="0 0 500.000000 500.000000"
 preserveAspectRatio="xMidYMid meet">
<metadata>
Created by potrace 1.14, written by Peter Selinger 2001-2017
</metadata>
<g transform="translate(0.000000,500.000000) scale(0.100000,-0.100000)"
fill="#000000" stroke="none">
<path d="M2441 4779 c-143 -28 -279 -104 -375 -210 -222 -246 -221 -638 3
-880 l56 -60 210 365 c116 201 212 366 215 366 3 0 99 -165 215 -365 115 -201
213 -365 216 -365 4 0 34 29 67 65 108 118 163 265 164 434 0 188 -58 327
-192 462 -70 70 -102 94 -170 127 -132 63 -283 86 -409 61z"/>
<path d="M777 3308 c10 -18 147 -255 302 -525 156 -271 287 -490 292 -488 4 3
26 39 49 80 l41 74 -210 363 -210 363 422 3 422 2 43 75 c23 41 42 77 42 80 0
3 -273 5 -606 5 l-606 0 19 -32z"/>
<path d="M3140 3333 c0 -3 19 -39 43 -79 l42 -74 431 -2 432 -3 -214 -370
c-118 -203 -214 -372 -214 -375 0 -3 21 -41 46 -84 l46 -78 120 208 c66 115
205 356 309 537 l188 327 -614 0 c-338 0 -615 -3 -615 -7z"/>
<path d="M546 1444 c-213 -371 -386 -677 -384 -680 3 -2 354 -3 781 -2 l776 3
-137 237 -137 238 -347 2 -347 3 170 295 c93 162 169 299 169 304 0 9 -149
276 -153 276 -1 0 -177 -305 -391 -676z"/>
<path d="M2364 2022 c-5 -4 -33 -35 -62 -70 -52 -63 -64 -98 -38 -108 11 -4
12 -12 4 -37 -5 -18 -10 -106 -10 -197 -1 -146 1 -170 17 -198 20 -33 52 -42
61 -17 3 8 1 37 -5 65 -10 48 -4 182 15 332 6 45 5 47 -20 50 l-27 3 46 52
c25 28 54 55 65 58 15 5 20 15 20 41 0 30 -3 34 -27 34 -16 0 -33 -4 -39 -8z"/>
<path d="M3973 1898 c20 -35 112 -196 206 -358 l170 -295 -400 -3 c-219 -1
-399 -6 -399 -10 0 -4 60 -111 133 -237 l132 -230 348 0 349 0 169 293 c93
161 169 299 169 305 0 7 -76 143 -168 302 l-167 290 -288 3 -289 2 35 -62z"/>
<path d="M2713 1863 c-7 -2 -13 -11 -13 -20 0 -15 -94 -161 -128 -198 -10 -11
-27 -25 -37 -31 -11 -6 -21 -23 -23 -38 -2 -17 -26 -50 -63 -88 -68 -69 -79
-108 -31 -108 23 0 39 12 72 53 87 104 90 106 150 107 30 1 79 5 108 9 l52 7
10 -35 c16 -58 69 -141 96 -151 71 -27 85 6 31 73 -28 36 -67 107 -67 122 0 3
15 5 33 5 57 0 77 10 77 38 0 24 -1 25 -59 19 -63 -7 -71 -2 -71 47 0 12 -4
26 -8 32 -5 5 -17 34 -26 65 -27 89 -53 113 -103 92z m46 -160 c7 -27 15 -56
18 -65 3 -15 -2 -18 -29 -18 -18 0 -42 -3 -53 -5 -11 -3 -26 -1 -34 4 -11 7
-5 21 30 70 24 33 46 61 49 61 3 0 12 -21 19 -47z"/>
<path d="M3750 1849 c-132 -12 -168 -23 -176 -56 -5 -19 -2 -30 11 -39 14 -10
16 -21 10 -51 -14 -79 -6 -176 21 -244 33 -81 143 -100 239 -42 97 61 150 143
91 143 -13 0 -29 -7 -36 -15 -44 -52 -157 -103 -191 -84 -26 14 -49 62 -49
104 0 31 3 35 28 35 60 1 144 9 216 21 70 11 76 14 76 36 l0 24 -158 -6 -158
-6 2 28 c1 15 3 35 3 44 1 24 66 39 201 47 109 7 115 8 118 29 2 17 -3 24 -20
27 -53 11 -139 13 -228 5z"/>
<path d="M1282 1828 c-8 -8 -42 -11 -102 -9 -90 2 -90 2 -90 -22 0 -30 21 -49
52 -47 13 1 49 2 82 1 l58 -1 -6 -164 c-8 -187 -4 -216 29 -216 27 0 32 28 42
242 l6 137 51 5 c177 18 174 18 181 -3 8 -25 41 -36 60 -21 13 11 15 -6 15
-126 0 -181 6 -214 35 -214 28 0 35 27 27 116 -5 62 -4 64 19 64 15 0 42 -18
74 -50 28 -28 78 -66 113 -86 55 -32 74 -37 145 -41 70 -4 87 -1 115 16 22 14
32 28 32 46 0 29 -6 30 -70 9 -82 -27 -182 8 -258 90 l-23 25 38 6 c53 9 155
45 176 63 19 17 22 63 6 93 -18 34 -92 58 -212 69 -62 5 -129 13 -149 16 -21
3 -43 2 -50 -3 -17 -10 -330 -4 -342 8 -14 13 -40 11 -54 -3z m666 -94 c74
-21 93 -38 61 -54 -48 -26 -143 -41 -211 -35 l-68 7 0 43 c0 25 5 45 13 48 28
12 153 6 205 -9z"/>
<path d="M3012 1822 c-8 -5 -12 -22 -10 -38 2 -25 8 -30 37 -34 38 -5 48 -25
45 -90 0 -19 -2 -67 -2 -107 -2 -62 -5 -72 -22 -78 -14 -4 -20 -15 -20 -36 0
-24 4 -29 25 -29 18 0 25 -5 25 -20 0 -29 34 -26 57 5 16 22 34 28 131 45 197
34 242 78 192 183 -23 47 -46 76 -75 94 -72 44 -127 73 -139 73 -8 0 -22 7
-31 16 -19 19 -190 32 -213 16z m298 -139 c35 -22 110 -102 110 -117 0 -25
-103 -62 -202 -72 l-67 -7 2 130 1 130 66 -24 c36 -13 76 -32 90 -40z"/>
<path d="M1998 1188 c11 -18 140 -242 287 -498 147 -256 270 -468 274 -473 6
-6 581 979 581 996 0 4 -42 7 -92 7 l-93 -1 -195 -339 c-113 -197 -198 -334
-202 -327 -4 7 -92 158 -196 337 l-188 325 -98 3 -98 3 20 -33z"/>
</g>
</svg>
